<mxfile host="app.diagrams.net" agent="Mozilla/5.0 (Windows NT 10.0; Win64; x64) AppleWebKit/537.36 (KHTML, like Gecko) Chrome/133.0.0.0 Safari/537.36" version="26.0.16">
  <diagram name="Page-1" id="WLoys8c1fPhX7VD4ao9a">
    <mxGraphModel dx="2463" dy="653" grid="1" gridSize="10" guides="1" tooltips="1" connect="1" arrows="1" fold="1" page="1" pageScale="1" pageWidth="850" pageHeight="1100" math="0" shadow="0">
      <root>
        <mxCell id="0" />
        <mxCell id="1" parent="0" />
        <mxCell id="bWFnkCtB5NSEsrCA-qpM-1" value="User Page" style="whiteSpace=wrap;html=1;aspect=fixed;" vertex="1" parent="1">
          <mxGeometry x="-40" y="30" width="80" height="80" as="geometry" />
        </mxCell>
        <mxCell id="bWFnkCtB5NSEsrCA-qpM-2" value="Home" style="rounded=0;whiteSpace=wrap;html=1;" vertex="1" parent="1">
          <mxGeometry x="-350" y="140" width="60" height="30" as="geometry" />
        </mxCell>
        <mxCell id="bWFnkCtB5NSEsrCA-qpM-4" value="About Us&lt;span style=&quot;color: rgba(0, 0, 0, 0); font-family: monospace; font-size: 0px; text-align: start; text-wrap-mode: nowrap;&quot;&gt;%3CmxGraphModel%3E%3Croot%3E%3CmxCell%20id%3D%220%22%2F%3E%3CmxCell%20id%3D%221%22%20parent%3D%220%22%2F%3E%3CmxCell%20id%3D%222%22%20value%3D%22Home%22%20style%3D%22rounded%3D0%3BwhiteSpace%3Dwrap%3Bhtml%3D1%3B%22%20vertex%3D%221%22%20parent%3D%221%22%3E%3CmxGeometry%20x%3D%22410%22%20y%3D%22240%22%20width%3D%2260%22%20height%3D%2230%22%20as%3D%22geometry%22%2F%3E%3C%2FmxCell%3E%3C%2Froot%3E%3C%2FmxGraphModel%3E&lt;/span&gt;" style="rounded=0;whiteSpace=wrap;html=1;" vertex="1" parent="1">
          <mxGeometry x="-160" y="140" width="60" height="30" as="geometry" />
        </mxCell>
        <mxCell id="bWFnkCtB5NSEsrCA-qpM-5" value="Contact Us" style="rounded=0;whiteSpace=wrap;html=1;" vertex="1" parent="1">
          <mxGeometry x="339" y="140" width="80" height="30" as="geometry" />
        </mxCell>
        <mxCell id="bWFnkCtB5NSEsrCA-qpM-8" value="Home Page will contain basic informations about the services we are providing" style="rounded=1;whiteSpace=wrap;html=1;" vertex="1" parent="1">
          <mxGeometry x="-600" y="220" width="120" height="90" as="geometry" />
        </mxCell>
        <mxCell id="bWFnkCtB5NSEsrCA-qpM-10" value="Will Display Crime Categories&lt;div&gt;e.g: I am fighting against Drop Down List of Categories.&lt;/div&gt;" style="rounded=1;whiteSpace=wrap;html=1;" vertex="1" parent="1">
          <mxGeometry x="-460" y="220" width="120" height="90" as="geometry" />
        </mxCell>
        <mxCell id="bWFnkCtB5NSEsrCA-qpM-13" value="Financial Aids" style="rounded=0;whiteSpace=wrap;html=1;" vertex="1" parent="1">
          <mxGeometry x="640" y="140" width="80" height="30" as="geometry" />
        </mxCell>
        <mxCell id="bWFnkCtB5NSEsrCA-qpM-15" value="" style="endArrow=classic;html=1;rounded=0;exitX=0;exitY=0.125;exitDx=0;exitDy=0;exitPerimeter=0;entryX=0.5;entryY=0;entryDx=0;entryDy=0;" edge="1" parent="1" source="bWFnkCtB5NSEsrCA-qpM-1" target="bWFnkCtB5NSEsrCA-qpM-2">
          <mxGeometry width="50" height="50" relative="1" as="geometry">
            <mxPoint x="-220" y="190" as="sourcePoint" />
            <mxPoint x="-170" y="140" as="targetPoint" />
            <Array as="points">
              <mxPoint x="-320" y="40" />
            </Array>
          </mxGeometry>
        </mxCell>
        <mxCell id="bWFnkCtB5NSEsrCA-qpM-16" value="" style="endArrow=classic;html=1;rounded=0;exitX=0.995;exitY=0.129;exitDx=0;exitDy=0;entryX=0.5;entryY=0;entryDx=0;entryDy=0;exitPerimeter=0;" edge="1" parent="1" source="bWFnkCtB5NSEsrCA-qpM-1" target="bWFnkCtB5NSEsrCA-qpM-13">
          <mxGeometry width="50" height="50" relative="1" as="geometry">
            <mxPoint x="460" y="40" as="sourcePoint" />
            <mxPoint x="170" y="120" as="targetPoint" />
            <Array as="points">
              <mxPoint x="680" y="40" />
            </Array>
          </mxGeometry>
        </mxCell>
        <mxCell id="bWFnkCtB5NSEsrCA-qpM-17" value="" style="endArrow=classic;html=1;rounded=0;exitX=-0.038;exitY=0.625;exitDx=0;exitDy=0;exitPerimeter=0;" edge="1" parent="1" source="bWFnkCtB5NSEsrCA-qpM-1">
          <mxGeometry width="50" height="50" relative="1" as="geometry">
            <mxPoint x="-82" y="80.95999999999992" as="sourcePoint" />
            <mxPoint x="-130" y="140" as="targetPoint" />
            <Array as="points">
              <mxPoint x="-130" y="81" />
            </Array>
          </mxGeometry>
        </mxCell>
        <mxCell id="bWFnkCtB5NSEsrCA-qpM-18" value="" style="endArrow=classic;html=1;rounded=0;entryX=0.5;entryY=0;entryDx=0;entryDy=0;exitX=1;exitY=0.5;exitDx=0;exitDy=0;" edge="1" parent="1" target="bWFnkCtB5NSEsrCA-qpM-5">
          <mxGeometry width="50" height="50" relative="1" as="geometry">
            <mxPoint x="40" y="77.99999999999989" as="sourcePoint" />
            <mxPoint x="378.99999999999955" y="128.0000000000001" as="targetPoint" />
            <Array as="points">
              <mxPoint x="379" y="78" />
            </Array>
          </mxGeometry>
        </mxCell>
        <mxCell id="bWFnkCtB5NSEsrCA-qpM-19" value="" style="endArrow=classic;html=1;rounded=0;exitX=0;exitY=0.25;exitDx=0;exitDy=0;entryX=0.417;entryY=-0.031;entryDx=0;entryDy=0;entryPerimeter=0;" edge="1" parent="1" source="bWFnkCtB5NSEsrCA-qpM-2" target="bWFnkCtB5NSEsrCA-qpM-8">
          <mxGeometry width="50" height="50" relative="1" as="geometry">
            <mxPoint x="-350" y="160" as="sourcePoint" />
            <mxPoint x="-420" y="210" as="targetPoint" />
            <Array as="points">
              <mxPoint x="-550" y="148" />
            </Array>
          </mxGeometry>
        </mxCell>
        <mxCell id="bWFnkCtB5NSEsrCA-qpM-20" value="" style="endArrow=classic;html=1;rounded=0;entryX=0.5;entryY=0;entryDx=0;entryDy=0;exitX=0;exitY=0.75;exitDx=0;exitDy=0;" edge="1" parent="1" source="bWFnkCtB5NSEsrCA-qpM-2" target="bWFnkCtB5NSEsrCA-qpM-10">
          <mxGeometry width="50" height="50" relative="1" as="geometry">
            <mxPoint x="-380" y="220" as="sourcePoint" />
            <mxPoint x="-330" y="170" as="targetPoint" />
            <Array as="points">
              <mxPoint x="-400" y="163" />
            </Array>
          </mxGeometry>
        </mxCell>
      </root>
    </mxGraphModel>
  </diagram>
</mxfile>
